<svg xmlns="http://www.w3.org/2000/svg" width="2000" viewBox="0 0 1500 1499.999933" height="2000" preserveAspectRatio="xMidYMid meet" version="1.0">
  <defs>
    <clipPath id="a"><path d="M 646 485 L 1439 485 L 1439 1318 L 646 1318 Z" clip-rule="nonzero"/></clipPath>
    <clipPath id="b"><path d="M 1516.488281 1278.09375 L 723.824219 1356.132812 L 645.78125 563.464844 L 1438.449219 485.425781 Z" clip-rule="nonzero"/></clipPath>
    <clipPath id="c"><path d="M 55 192 L 962 192 L 962 1248 L 55 1248 Z" clip-rule="nonzero"/></clipPath>
    <clipPath id="d"><path d="M 190.746094 179.742188 L 995.742188 293.519531 L 860.867188 1247.785156 L 55.867188 1134.007812 Z" clip-rule="nonzero"/></clipPath>
  </defs>
  <rect x="-150" width="1800" fill="#ffffff" y="-149.999993" height="1799.99992"/>
  <g clip-path="url(#a)"><g clip-path="url(#b)"><g clip-path="url(#b)">
    <path fill="#7ed957" d="M 1041.945312 774.816406 L 967.683594 782.128906 L 1091.066406 1019.953125 L 1165.730469 762.59375 L 1091.464844 769.90625 L 1076.839844 621.34375 L 1438.484375 485.769531 L 1120.316406 1317.082031 L 646.140625 563.777344 L 1027.285156 626.253906 L 1041.914062 774.820312 Z"/>
  </g></g></g>
  <g clip-path="url(#c)"><g clip-path="url(#d)"><g clip-path="url(#d)"><g clip-path="url(#d)">
    <path fill="#000000" d="M 55.945312 1133.425781 L 140.609375 534.429688 L 546.503906 591.800781 L 674.949219 859.285156 L 350.496094 813.425781 L 334.9375 923.515625 L 732.519531 979.710938 L 860.953125 1247.207031 Z M 408.082031 460.269531 L 279.96875 192.828125 L 832.953125 270.988281 L 961.0625 538.429688 Z"/>
  </g></g></g></g>
</svg>
